<?xml version="1.0" encoding="UTF-8" standalone="no"?>
<svg
   width="64"
   height="64"
   viewBox="0 0 64 64"
   aria-label="Connected favicon"
   version="1.1"
   id="svg3"
   sodipodi:docname="connected.svg"
   inkscape:version="1.4.3 (0d15f75, 2025-12-25)"
   xmlns:inkscape="http://www.inkscape.org/namespaces/inkscape"
   xmlns:sodipodi="http://sodipodi.sourceforge.net/DTD/sodipodi-0.dtd"
   xmlns="http://www.w3.org/2000/svg"
   xmlns:svg="http://www.w3.org/2000/svg">
  <sodipodi:namedview
     id="namedview3"
     pagecolor="#ffffff"
     bordercolor="#000000"
     borderopacity="0.25"
     inkscape:showpageshadow="2"
     inkscape:pageopacity="0.0"
     inkscape:pagecheckerboard="0"
     inkscape:deskcolor="#d1d1d1"
     inkscape:zoom="21.096283"
     inkscape:cx="49.558494"
     inkscape:cy="26.284251"
     inkscape:window-width="1728"
     inkscape:window-height="914"
     inkscape:window-x="104"
     inkscape:window-y="1178"
     inkscape:window-maximized="0"
     inkscape:current-layer="svg3" />
  <defs
     id="defs2">
    <linearGradient
       id="bg"
       x1="2"
       y1="2"
       x2="62"
       y2="62"
       gradientUnits="userSpaceOnUse"
       gradientTransform="matrix(1.059276,0,0,1.050808,-1.8968338,-1.6258575)">
      <stop
         offset="0%"
         stop-color="#4F7CFF"
         id="stop1" />
      <stop
         offset="100%"
         stop-color="#8B5CF6"
         id="stop2" />
    </linearGradient>
  </defs>
  <!-- Rounded square background -->
  <path
     id="rect2"
     style="fill:url(#bg);stroke-width:1.05504"
     d="M 15.050781 0.4765625 C 6.8350355 0.4765625 0.22265625 7.088942 0.22265625 15.304688 L 0.22265625 48.695312 C 0.22265625 56.911057 6.8350356 63.523438 15.050781 63.523438 L 48.949219 63.523438 C 57.164965 63.523438 63.777344 56.911057 63.777344 48.695312 L 63.777344 42.572266 L 51.148438 35.523438 C 51.128208 35.500847 51.109684 35.479611 51.089844 35.457031 L 51.089844 40.871094 C 51.089844 43.766212 48.758399 46.097656 45.863281 46.097656 L 19.734375 46.097656 C 16.839257 46.097656 14.507812 43.766212 14.507812 40.871094 L 14.507812 23.128906 C 14.507812 20.233788 16.839257 17.902344 19.734375 17.902344 L 45.863281 17.902344 C 48.758399 17.902344 51.089844 20.233788 51.089844 23.128906 L 51.089844 28.542969 C 51.109684 28.520379 51.128208 28.499143 51.148438 28.476562 L 63.777344 21.427734 L 63.777344 15.304688 C 63.777344 7.088942 57.164965 0.4765625 48.949219 0.4765625 L 15.050781 0.4765625 z " />
  <!-- Camera body (flatter, wider) -->
  <!-- Camera lens (smaller, tighter) -->
  <path
     id="path1"
     style="display:inline;fill:#ffffff;stroke-width:1.51728"
     d="m 19.734375,17.902344 c -2.895118,0 -5.226563,2.331444 -5.226563,5.226562 v 17.742188 c 0,2.895118 2.331445,5.226562 5.226563,5.226562 h 26.128906 c 2.895118,0 5.226563,-2.331444 5.226563,-5.226562 v -5.414063 c 0.01984,0.02258 0.03836,0.04382 0.05859,0.06641 L 63.77734,42.572269 V 21.427734 l -12.628906,7.048828 c -0.02023,0.02258 -0.03875,0.04382 -0.05859,0.06641 v -5.414063 c 0,-2.895118 -2.331445,-5.226562 -5.226563,-5.226562 z" />
</svg>
